# xmcd
#
# Track frame offsets:
# 150
# 21260
# 41461
# 67496
# 93554
# 117118
#
# Disc length: 1928 seconds
#
#
# Revision: 0
# Processed by: cddbd v1.5.2PL0 Copyright (c) Steve Scherf et al.
# Submitted via: FreeRIP 2.943 
#
DISCID=50078606
DTITLE=black harvest - demo
DYEAR=2008
DGENRE=Avantgarde
TTITLE0=pathetic labor
TTITLE1=everything is revealed
TTITLE2=gift
TTITLE3=wake
TTITLE4=behind every tree and stone
TTITLE5=in your absence
EXTD=z
EXTT0=
EXTT1=
EXTT2=
EXTT3=
EXTT4=
EXTT5=
PLAYORDER=
